<?xml version="1.0" standalone="no"?>
<!DOCTYPE svg PUBLIC "-//W3C//DTD SVG 20010904//EN"
 "http://www.w3.org/TR/2001/REC-SVG-20010904/DTD/svg10.dtd">
<svg version="1.0" xmlns="http://www.w3.org/2000/svg"
 width="336.000000pt" height="329.000000pt" viewBox="0 0 336.000000 329.000000"
 preserveAspectRatio="xMidYMid meet">
<metadata>
Created by potrace 1.10, written by Peter Selinger 2001-2011
</metadata>
<g transform="translate(0.000000,329.000000) scale(0.050000,-0.050000)"
fill="#cc454c" stroke="none">
<path d="M3180 6210 c-530 -145 -893 -564 -962 -1112 -13 -103 -25 -190 -28
-193 -2 -3 -62 9 -132 28 -634 167 -1338 -223 -1541 -853 -211 -657 203 -1458
841 -1625 l47 -13 -44 -66 c-585 -875 9 -2022 1049 -2023 402 -1 768 168 995
459 101 129 88 129 180 7 486 -638 1541 -618 2023 38 319 435 340 1049 51
1477 -75 112 -75 111 26 142 357 110 720 519 818 924 223 922 -695 1803 -1594
1530 -55 -16 -104 -30 -111 -30 -7 0 -18 71 -25 157 -66 787 -850 1355 -1593
1153z m634 -2131 c672 -231 868 -1094 363 -1599 -607 -607 -1639 -175 -1639
686 0 665 648 1129 1276 913z"/>
</g>
</svg>
