<?xml version="1.0" standalone="no"?>
<!DOCTYPE svg PUBLIC "-//W3C//DTD SVG 20010904//EN"
 "http://www.w3.org/TR/2001/REC-SVG-20010904/DTD/svg10.dtd">
<svg version="1.0" xmlns="http://www.w3.org/2000/svg"
 width="1215.000000pt" height="1185.000000pt" viewBox="0 0 1215.000000 1185.000000"
 preserveAspectRatio="xMidYMid meet">
<metadata>
Created by potrace 1.10, written by Peter Selinger 2001-2011
</metadata>
<g transform="translate(0.000000,1185.000000) scale(0.100000,-0.100000)"
fill="#752670" stroke="none">
<path d="M6032 11215 c-304 -20 -558 -59 -842 -127 -157 -38 -436 -120 -515
-152 -140 -55 -253 -100 -289 -113 -53 -19 -227 -99 -311 -143 -38 -20 -113
-59 -165 -85 -193 -99 -541 -319 -665 -419 -22 -18 -80 -64 -130 -101 -319
-242 -697 -628 -961 -980 -279 -371 -527 -817 -687 -1235 -76 -196 -177 -528
-222 -730 -14 -63 -32 -142 -40 -175 -26 -108 -66 -388 -87 -600 -17 -172 -17
-646 0 -800 41 -378 70 -548 143 -830 21 -82 41 -161 45 -175 11 -44 72 -233
94 -290 11 -30 32 -84 45 -120 56 -155 96 -244 190 -431 69 -136 106 -204 166
-307 27 -45 49 -85 49 -88 0 -3 9 -17 19 -32 11 -15 54 -81 96 -147 84 -130
278 -394 359 -490 181 -213 334 -373 557 -581 184 -171 512 -418 799 -600 225
-142 663 -357 953 -466 584 -219 1097 -312 1737 -312 303 -1 501 16 825 70
361 59 858 210 1175 356 83 38 402 198 455 228 416 233 801 529 1185 910 191
190 411 448 546 642 115 166 232 344 264 403 18 33 52 94 75 135 204 362 359
739 494 1200 55 185 59 203 90 345 93 433 131 919 101 1278 -56 660 -148 1079
-353 1617 -66 174 -91 231 -180 420 -54 115 -285 504 -380 639 -179 256 -339
449 -558 673 -456 464 -910 795 -1488 1083 -83 41 -153 75 -156 75 -3 0 -33
13 -67 29 -291 135 -702 269 -1028 334 -320 64 -475 82 -810 97 -270 12 -272
12 -528 -5z m758 -804 c239 -36 294 -45 385 -63 230 -44 506 -122 695 -195
575 -222 971 -455 1419 -837 364 -309 727 -756 962 -1181 259 -470 434 -960
513 -1435 51 -312 59 -415 59 -745 -1 -383 -27 -607 -113 -965 -47 -196 -76
-285 -185 -580 -97 -260 -299 -643 -488 -925 -60 -89 -223 -309 -249 -336 -7
-8 -47 -54 -88 -104 -92 -113 -343 -363 -486 -485 -104 -89 -303 -241 -429
-327 -225 -156 -600 -355 -835 -445 -265 -102 -636 -205 -858 -239 -35 -5 -83
-13 -105 -19 -23 -5 -100 -17 -172 -27 -187 -26 -753 -25 -940 0 -159 22 -345
54 -394 67 -20 5 -83 20 -141 34 -328 79 -662 204 -968 363 -473 245 -919 593
-1314 1024 -138 150 -341 413 -452 584 -32 50 -67 102 -77 117 -11 15 -19 30
-19 33 0 3 -10 22 -23 43 -123 196 -277 534 -369 807 -36 109 -104 353 -115
415 -2 14 -10 54 -18 90 -17 84 -40 230 -62 405 -25 198 -25 752 1 940 46 338
69 448 162 781 110 390 226 667 419 1004 122 212 309 473 473 660 103 117 438
445 525 513 43 34 109 86 145 114 155 122 406 283 592 380 258 135 358 182
555 258 39 15 97 37 130 50 63 25 346 109 418 125 23 5 71 16 107 24 102 24
301 57 465 77 124 15 206 17 475 14 179 -1 359 -8 400 -14z"/>
<path d="M4587 8819 c-203 -48 -368 -300 -478 -729 -86 -336 -82 -732 12
-1115 77 -316 251 -600 422 -685 81 -40 175 -42 255 -5 89 41 190 160 266 310
269 538 265 1351 -10 1883 -105 202 -218 313 -352 341 -60 12 -63 12 -115 0z"/>
<path d="M7973 8810 c-115 -24 -247 -164 -341 -360 -193 -404 -239 -962 -121
-1467 82 -348 263 -634 443 -702 109 -41 198 -21 304 69 322 272 493 1097 349
1685 -61 248 -128 412 -231 567 -48 74 -144 162 -203 188 -55 24 -140 33 -200
20z"/>
<path d="M3179 5426 c-185 -52 -347 -240 -324 -378 5 -28 22 -56 56 -94 27
-30 49 -60 49 -68 0 -20 110 -233 165 -316 217 -337 596 -711 980 -967 672
-448 1479 -692 2295 -693 318 0 710 50 970 125 182 52 205 59 335 105 221 78
426 168 585 256 186 103 252 142 358 213 224 148 464 350 633 532 189 204 380
487 469 697 35 82 50 107 76 123 38 23 50 63 41 139 -9 79 -68 159 -171 234
-105 76 -132 86 -237 86 -126 0 -180 -29 -210 -112 -16 -48 -1 -100 42 -140
16 -15 29 -35 29 -46 0 -42 -118 -233 -234 -378 -154 -191 -451 -451 -648
-566 -32 -18 -88 -52 -125 -74 -88 -54 -302 -161 -423 -212 -93 -39 -376 -138
-435 -152 -16 -4 -64 -17 -105 -28 -41 -11 -127 -30 -190 -41 -63 -12 -137
-26 -165 -31 -240 -47 -683 -63 -955 -36 -189 19 -305 37 -475 73 -226 47
-291 65 -473 127 -579 197 -1124 564 -1491 1001 -107 127 -211 284 -211 318 0
7 18 30 40 52 150 146 -18 315 -251 251z"/>
</g>
</svg>
