<?xml version="1.0" standalone="no"?>
<!DOCTYPE svg PUBLIC "-//W3C//DTD SVG 20010904//EN"
 "http://www.w3.org/TR/2001/REC-SVG-20010904/DTD/svg10.dtd">
<svg version="1.0" xmlns="http://www.w3.org/2000/svg"
 width="300.000000pt" height="314.000000pt" viewBox="0 0 300.000000 314.000000"
 preserveAspectRatio="xMidYMid meet">
<metadata>
Created by potrace 1.10, written by Peter Selinger 2001-2011
</metadata>
<g transform="translate(0.000000,314.000000) scale(0.100000,-0.100000)"
fill="#19bdbd" stroke="none">
<path d="M1491 2798 c-22 -176 -143 -933 -150 -941 -7 -7 -137 76 -308 196
-77 55 -103 63 -103 34 0 -7 23 -44 50 -82 95 -131 203 -306 194 -315 -9 -8
-611 -102 -898 -140 -143 -19 -178 -32 -156 -54 9 -9 243 -47 780 -126 151
-22 278 -44 283 -49 4 -4 -51 -96 -123 -205 -71 -108 -130 -201 -130 -206 0
-25 47 -3 151 71 184 132 249 173 258 163 9 -9 91 -526 131 -829 28 -211 27
-207 48 -203 19 4 22 17 52 233 49 365 125 805 138 805 12 0 75 -41 320 -211
48 -33 65 -40 74 -31 9 9 -19 57 -121 208 -73 108 -129 200 -124 205 4 4 116
24 248 43 132 19 357 53 501 76 143 22 270 40 281 40 25 0 50 27 37 40 -5 5
-99 22 -209 38 -800 117 -855 126 -855 139 0 8 56 99 125 204 115 173 132 209
104 209 -5 0 -78 -49 -162 -108 -194 -139 -204 -145 -220 -139 -8 3 -18 37
-25 83 -16 108 -143 894 -148 922 -2 12 -10 22 -18 22 -9 0 -17 -27 -25 -92z
m39 -702 c0 -21 40 -449 43 -459 2 -5 34 15 72 45 98 76 135 101 135 91 0 -5
-29 -53 -65 -107 -36 -54 -65 -101 -65 -105 0 -3 78 -15 173 -24 94 -10 188
-21 207 -25 l35 -6 -31 -6 c-17 -4 -110 -15 -207 -25 -98 -10 -177 -22 -177
-26 0 -5 32 -56 72 -113 39 -58 70 -108 67 -111 -3 -2 -52 32 -108 76 -57 44
-104 79 -106 77 -1 -2 -7 -59 -14 -128 -17 -186 -33 -300 -41 -300 -7 0 -23
119 -40 310 -6 63 -13 116 -15 118 -2 2 -49 -33 -105 -78 -56 -45 -103 -80
-106 -77 -2 2 27 52 66 111 38 59 70 110 70 114 0 5 -91 19 -202 31 -112 13
-205 25 -207 27 -8 7 27 12 214 29 105 10 192 19 194 21 2 2 -24 46 -58 98
-33 52 -64 103 -68 113 -4 9 41 -20 100 -65 59 -45 107 -77 107 -70 0 7 9 105
20 218 11 113 20 217 20 233 0 15 5 27 10 27 6 0 10 -7 10 -14z"/>
</g>
</svg>
