<?xml version="1.0" standalone="no"?>
<!DOCTYPE svg PUBLIC "-//W3C//DTD SVG 20010904//EN"
 "http://www.w3.org/TR/2001/REC-SVG-20010904/DTD/svg10.dtd">
<svg version="1.0" xmlns="http://www.w3.org/2000/svg"
 width="408.000000pt" height="414.000000pt" viewBox="0 0 408.000000 414.000000"
 preserveAspectRatio="xMidYMid meet">
<metadata>
Created by potrace 1.10, written by Peter Selinger 2001-2011
</metadata>
<g transform="translate(0.000000,414.000000) scale(0.050000,-0.050000)"
fill="#3eab4c" stroke="none">
<path d="M3855 7606 c-34 -38 -109 -331 -235 -924 -43 -202 -84 -373 -91 -379
-16 -17 -59 43 -239 331 -140 224 -189 276 -218 230 -5 -10 12 -142 38 -295
50 -285 60 -389 37 -389 -7 0 -103 88 -215 195 -620 597 -885 812 -941 765
-52 -43 -38 -94 180 -630 343 -844 364 -905 294 -884 -32 9 -848 291 -1341
463 -215 75 -283 74 -285 -5 0 -19 146 -173 325 -344 542 -517 785 -757 775
-766 -5 -5 -130 4 -279 19 -452 46 -511 22 -276 -114 410 -237 476 -289 391
-308 -25 -6 -316 -69 -648 -140 -686 -146 -747 -166 -747 -239 0 -68 30 -81
364 -161 226 -55 1061 -231 1092 -231 36 0 -55 -58 -232 -149 -463 -238 -465
-258 -29 -239 277 11 311 9 285 -16 -16 -17 -239 -212 -495 -435 -478 -415
-516 -455 -495 -520 25 -80 -32 -91 915 177 393 111 720 202 727 202 32 0 -27
-152 -273 -711 -288 -655 -307 -713 -241 -748 70 -37 66 -41 768 576 217 192
400 344 405 339 12 -12 -18 -238 -64 -488 -57 -313 -10 -319 186 -26 73 108
161 231 197 272 l66 76 14 -80 c36 -209 236 -1086 257 -1130 32 -69 121 -78
160 -16 31 51 114 375 223 877 39 180 75 331 80 336 20 20 94 -70 240 -290
229 -345 268 -337 199 43 -50 273 -60 410 -32 410 9 0 119 -92 244 -205 124
-113 344 -311 488 -442 293 -265 337 -292 395 -239 55 49 52 60 -235 726 -273
635 -295 694 -269 710 20 12 281 -57 985 -262 544 -159 620 -170 632 -91 9 64
-59 132 -557 559 -225 193 -423 364 -440 380 -26 25 11 27 297 15 413 -17 419
-1 73 194 -321 182 -305 171 -274 191 14 10 145 42 290 72 479 100 1019 231
1047 254 128 107 -112 199 -983 377 -391 80 -390 79 -390 97 0 15 248 173 445
283 233 130 187 153 -234 120 -182 -14 -336 -21 -341 -16 -5 6 234 242 531
526 471 448 540 522 535 568 -10 85 -81 76 -459 -58 -552 -197 -1163 -399
-1173 -389 -14 13 59 210 246 660 324 779 338 835 220 845 -66 6 -147 -63
-770 -659 -170 -163 -313 -287 -317 -275 -4 12 13 161 38 331 66 448 35 461
-189 83 -142 -240 -204 -330 -217 -315 -4 6 -73 277 -154 604 -177 723 -212
805 -306 702z m438 -1767 c871 -222 1465 -1146 1274 -1984 -351 -1543 -2437
-1813 -3185 -411 -667 1248 529 2748 1911 2395z"/>
</g>
</svg>
